<svg xmlns="http://www.w3.org/2000/svg" viewBox="0 0 108.33 51.38"><g id="Layer_2" data-name="Layer 2"><g id="Layer_1-2" data-name="Layer 1"><path d="M10,20.33l7.39-.47,3.77-3.65-4.17,7L26.73,25l1.84-6.32,8.13.2.8,5.92,6.92-1.1L44.35,25h7.79V20.33l7.39-.47,6-5.75L65,4.21l-5.88-4H45.59L44.75,17,37,.13,30.34.8l-7,11.87-.4-8.46L17,.17H3.47L2.23,25H10ZM53.51,7.79l4.78,1-2.81,3.3-2.2-.3ZM32.05,8.89l2.57.1,1.17,3.45-5.11-.14ZM11.39,7.79l4.78,1-2.81,3.3-2.2-.3Z"/><path d="M85.59,24.8v.14h7.69l-1.13-6.45L99.74,25,107,21.83l-6.19-5.45,3.48-3.88-.57-7.79L97.54.2,83.71,1.27,84,0H67.58l-1.8,8.83,1.8,16ZM92.16,7.12,96,9.19l-2,2.94-2-.26Zm-17.62,1,8-1.24,1.09-5.47,1.81,22.16-2.33-5.46-7.72-.06-.57-1.81,6.35-.57.34-5.31-7.12-.54Z"/><path d="M57.36,34.27l-4.72-7.76h-5L44.73,42.23l-7.2-15.69-6.68.67L21.78,42.45l-.85-15.37L14,26.78l-.3,9-4.91.74-.41-10.2L0,27.92,2.67,51.08H9.93L9.76,44.2l4.68-.9.07,7.52,4.16.14h0l8.57.42,1.83-6.32,8.13.2.8,5.92L46.23,51l4.84.2,1.44-8,5,7.56,6.41.4,1.64-23.47-7.75-1.2ZM31.18,38.71l1.37-3.41,2.58.1,1.17,3.45Z"/><path d="M99,34.8,104,38l4.31-5.31-6-6.35H94.29L86,35.62l-.37-3.43-7-5.75L66.35,28v23.3H80.19l5.62-4.59,5.81,4.62h10.73L106.73,43l-9-6.62ZM78.52,41.08,74,42.66V35.37l4.52,2.07Zm15.31,2.45-6.46-3.65-.74,1.25-.45-4.23L94.8,42Z"/></g></g></svg>